HIERARCHY
ROOT hip
{
	OFFSET 0.000000 0.000000 0.000000
	CHANNELS 6 Xposition Yposition Zposition Xrotation Zrotation Yrotation 
	JOINT abdomen
	{
		OFFSET 0.000000 3.422050 0.000000
		CHANNELS 3 Xrotation Zrotation Yrotation 
		JOINT chest
		{
			OFFSET 0.000000 8.486693 -0.684411
			CHANNELS 3 Xrotation Zrotation Yrotation 
			JOINT neck
			{
				OFFSET 0.000000 10.266162 -0.273764
				CHANNELS 3 Xrotation Zrotation Yrotation 
				JOINT head
				{
					OFFSET 0.000000 3.148285 0.000000
					CHANNELS 3 Xrotation Zrotation Yrotation 
					End Site
					{
						OFFSET 0.000000 3.148289 0.000000
					}
				}
			}
			JOINT lCollar
			{
				OFFSET 3.422053 6.707223 -0.821293
				CHANNELS 3 Yrotation Zrotation Xrotation 
				JOINT lShldr
				{
					OFFSET 3.285171 0.000000 0.000000
					CHANNELS 3 Zrotation Yrotation Xrotation 
					JOINT lForeArm
					{
						OFFSET 10.129278 0.000000 0.000000
						CHANNELS 3 Yrotation Zrotation Xrotation 
						JOINT lHand
						{
							OFFSET 8.486692 0.000000 0.000000
							CHANNELS 3 Zrotation Yrotation Xrotation 
							End Site
							{
								OFFSET 4.106464 0.000000 0.000000
							}
						}
					}
				}
			}
			JOINT rCollar
			{
				OFFSET -3.558935 6.707223 -0.821293
				CHANNELS 3 Yrotation Zrotation Xrotation 
				JOINT rShldr
				{
					OFFSET -3.148289 0.000000 0.000000
					CHANNELS 3 Zrotation Yrotation Xrotation 
					JOINT rForeArm
					{
						OFFSET -10.266159 0.000000 0.000000
						CHANNELS 3 Yrotation Zrotation Xrotation 
						JOINT rHand
						{
							OFFSET -8.349810 0.000000 0.000000
							CHANNELS 3 Zrotation Yrotation Xrotation 
							End Site
							{
								OFFSET -4.106464 0.000000 0.000000
							}
						}
					}
				}
			}
		}
	}
	JOINT lThigh
	{
		OFFSET 5.338403 -1.642589 1.368821
		CHANNELS 3 Xrotation Zrotation Yrotation 
		JOINT lShin
		{
			OFFSET -2.053232 -20.121670 0.000000
			CHANNELS 3 Xrotation Zrotation Yrotation 
			JOINT lFoot
			{
				OFFSET 0.000000 -19.300380 -1.231939
				CHANNELS 3 Xrotation Yrotation Zrotation 
				End Site
				{
					OFFSET 0.000000 -2.463878 4.653993
				}
			}
		}
	}
	JOINT rThigh
	{
		OFFSET -5.338403 -1.642589 1.368821
		CHANNELS 3 Xrotation Zrotation Yrotation 
		JOINT rShin
		{
			OFFSET 2.053232 -20.121670 0.000000
			CHANNELS 3 Xrotation Zrotation Yrotation 
			JOINT rFoot
			{
				OFFSET 0.000000 -19.300380 -1.231939
				CHANNELS 3 Xrotation Yrotation Zrotation 
				End Site
				{
					OFFSET 0.000000 -2.463878 4.653993
				}
			}
		}
	}
}
MOTION
Frames: 13
Frame Time: 0.022176
-0.844055 8.453833 2.772303 0.000000 -90.000000 0.000000 1.176106 -2.523619 -21.910009 12.309271 12.991812 -13.677310 -2.002452 24.347336 -0.002569 3.412799 8.600035 0.556308 24.557711 -9.776300 -7.951026 -76.565102 -40.603683 20.221819 24.140244 -16.065830 -1.432308 0.000000 0.000000 0.000000 -15.862544 50.180988 -92.597527 -10.400229 -15.050571 -12.542295 -54.245178 33.353271 27.848131 -24.078535 -19.212954 57.868362 13.949143 7.638043 8.370542 67.949455 1.458019 -3.830264 6.510414 2.992389 -0.203515 -13.069747 -10.448711 4.605335 36.586216 48.698223 -53.907867 34.698959 22.893375 13.592767 
-0.844055 8.453833 2.642992 0.000000 -90.000000 0.000000 1.679497 -2.528640 -21.531681 12.760889 12.989235 -13.450788 -2.002447 24.270401 -0.002562 3.471200 8.556798 0.557888 24.440605 -9.435639 -8.858836 -76.998886 -40.798351 20.484926 24.306114 -16.306137 -1.389785 0.000000 0.000000 0.000000 -15.805448 50.783516 -93.277763 -10.400229 -15.050571 -12.542295 -53.619835 33.179752 27.515448 -23.591105 -19.714212 58.101421 13.558308 7.654049 8.363439 68.433731 1.513951 -3.819435 6.510414 2.992389 -0.203515 -13.264580 -10.483584 4.536364 36.586216 48.698223 -53.907867 34.812717 22.740976 13.467508 
-0.844055 8.453833 2.513680 0.000000 -90.000000 0.000000 2.182781 -2.536979 -21.153454 13.212454 12.984918 -13.224308 -2.002441 24.193457 -0.002555 3.529593 8.513557 0.559423 24.329134 -9.093292 -9.764806 -77.435112 -40.991493 20.750744 24.472370 -16.546318 -1.346484 0.000000 0.000000 0.000000 -15.736152 51.385426 -93.967735 -10.400229 -15.050571 -12.542295 -52.996998 33.003227 27.185738 -23.104397 -20.217230 58.330635 13.167469 7.670006 8.356222 68.917976 1.569786 -3.808133 6.510414 2.992389 -0.203515 -13.459384 -10.518682 4.467505 36.586216 48.698223 -53.907867 34.925972 22.588350 13.342720 
-0.844055 8.453833 2.384369 0.000000 -90.000000 0.000000 2.685910 -2.548635 -20.775387 13.663951 12.978864 -12.997901 -2.002435 24.116503 -0.002549 3.587981 8.470314 0.560914 24.223293 -8.749391 -10.668867 -77.873764 -41.183075 21.019266 24.639019 -16.786369 -1.302403 0.000000 0.000000 0.000000 -15.654213 51.986553 -94.667847 -10.400229 -15.050571 -12.542295 -52.376713 32.823742 26.859032 -22.618376 -20.721914 58.555958 12.776644 7.685914 8.348899 69.402206 1.625517 -3.796360 6.510414 2.992389 -0.203515 -13.654172 -10.554015 4.398766 36.586216 48.698223 -53.907867 35.038742 22.435499 13.218390 
-0.844055 8.453833 2.255058 0.000000 -90.000000 0.000000 3.188828 -2.563603 -20.397530 14.115345 12.971070 -12.771583 -2.002428 24.039547 -0.002542 3.646363 8.427068 0.562360 24.123108 -8.404079 -11.570961 -78.314835 -41.373077 21.290489 24.806063 -17.026283 -1.257539 0.000000 0.000000 0.000000 -15.559114 52.586720 -95.378586 -10.400229 -15.050571 -12.542295 -51.759029 32.641331 26.535378 -22.133028 -21.228182 58.777370 12.385840 7.701771 8.341467 69.886375 1.681138 -3.784118 6.510414 2.992389 -0.203515 -13.848927 -10.589574 4.330141 36.586216 48.698223 -53.907867 35.151028 22.282425 13.094531 
-0.844055 8.453834 2.125746 0.000000 -90.000000 0.000000 3.691484 -2.581877 -20.019928 14.566620 12.961545 -12.545380 -2.002423 23.962601 -0.002535 3.704738 8.383821 0.563761 24.028576 -8.057496 -12.471028 -78.758377 -41.561485 21.564432 24.973513 -17.266060 -1.211887 0.000000 0.000000 0.000000 -15.450337 53.185772 -96.100494 -10.400229 -15.050571 -12.542295 -51.143974 32.456047 26.214806 -21.648321 -21.735937 58.994816 11.995067 7.717576 8.333928 70.370483 1.736643 -3.771408 6.510414 2.992389 -0.203515 -14.043657 -10.625361 4.261634 36.586216 48.698223 -53.907867 35.262844 22.129135 12.971133 
-0.844055 8.453834 1.996435 0.000000 -90.000000 0.000000 4.193829 -2.603450 -19.642639 15.017751 12.950287 -12.319315 -2.002416 23.885643 -0.002528 3.763108 8.340568 0.565117 23.939699 -7.709775 -13.369009 -79.204346 -41.748276 21.841085 25.141367 -17.505686 -1.165443 0.000000 0.000000 0.000000 -15.327343 53.783508 -96.834030 -10.400229 -15.050571 -12.542295 -50.531601 32.267933 25.897356 -21.164234 -22.245100 59.208294 11.604328 7.733327 8.326280 70.854523 1.792028 -3.758233 6.510414 2.992389 -0.203515 -14.238356 -10.661376 4.193246 36.586216 48.698223 -53.907867 35.374168 21.975626 12.848195 
-0.844055 8.453834 1.867124 0.000000 -90.000000 0.000000 4.695807 -2.628315 -19.265713 15.468705 12.937297 -12.093409 -2.002411 23.808691 -0.002521 3.821471 8.297313 0.566429 23.856480 -7.361063 -14.264853 -79.652733 -41.933403 22.120432 25.309628 -17.745157 -1.118205 0.000000 0.000000 0.000000 -15.189555 54.379768 -97.579796 -10.400229 -15.050571 -12.542295 -49.921944 32.077038 25.583063 -20.680735 -22.755577 59.417728 11.213634 7.749022 8.318522 71.338470 1.847286 -3.744593 6.510414 2.992389 -0.203515 -14.433023 -10.697614 4.124979 36.586216 48.698223 -53.907867 35.485012 21.821909 12.725722 
-0.844055 8.453834 1.737812 0.000000 -90.000000 0.000000 5.197371 -2.656461 -18.889202 15.919465 12.922576 -11.867683 -2.002405 23.731731 -0.002515 3.879829 8.254058 0.567696 23.778908 -7.011491 -15.158497 -80.103554 -42.116859 22.402491 25.478317 -17.984478 -1.070170 0.000000 0.000000 0.000000 -15.036375 54.974365 -98.338364 -10.400229 -15.050571 -12.542295 -49.315014 31.883392 25.271942 -20.197800 -23.267290 59.623119 10.823000 7.764663 8.310662 71.822304 1.902410 -3.730490 6.510414 2.992389 -0.203515 -14.627660 -10.734079 4.056832 36.586216 48.698223 -53.907867 35.595383 21.667976 12.603703 
-0.844055 8.453834 1.608501 0.000000 -90.000000 0.000000 5.698466 -2.687881 -18.513153 16.370007 12.906133 -11.642163 -2.002399 23.654770 -0.002508 3.938180 8.210801 0.568919 23.706980 -6.661204 -16.049892 -80.556816 -42.298641 22.687260 25.647423 -18.223631 -1.021333 0.000000 0.000000 0.000000 -14.867164 55.567120 -99.110390 -10.400229 -15.050571 -12.542295 -48.710873 31.687057 24.964039 -19.715393 -23.780138 59.824417 10.432426 7.780245 8.302691 72.306000 1.957395 -3.715925 6.510414 2.992389 -0.203515 -14.822262 -10.770770 3.988810 36.586216 48.698223 -53.907867 35.705276 21.513836 12.482139 
-0.844055 8.453834 1.479190 0.000000 -90.000000 0.000000 6.199044 -2.722560 -18.137621 16.820301 12.887966 -11.416868 -2.002393 23.577810 -0.002501 3.996526 8.167538 0.570097 23.640684 -6.310338 -16.938993 -81.012505 -42.478683 22.974718 25.816959 -18.462620 -0.971691 0.000000 0.000000 0.000000 -14.681263 56.157806 -99.896446 -10.400229 -15.050571 -12.542295 -48.109531 31.488071 24.659376 -19.233490 -24.294039 60.021599 10.041931 7.795772 8.294619 72.789543 2.012235 -3.700901 6.510414 2.992389 -0.203515 -15.016833 -10.807687 3.920912 36.586216 48.698223 -53.907867 35.814690 21.359488 12.361031 
-0.844055 8.453834 1.349878 0.000000 -90.000000 0.000000 6.699055 -2.760487 -17.762653 17.270327 12.868082 -11.191826 -2.002388 23.500845 -0.002495 4.054867 8.124279 0.571231 23.579998 -5.959029 -17.825745 -81.470604 -42.656986 23.264870 25.986917 -18.701429 -0.921240 0.000000 0.000000 0.000000 -14.477945 56.746231 -100.697281 -10.400229 -15.050571 -12.542295 -47.511005 31.286474 24.357964 -18.752045 -24.808901 60.214615 9.651514 7.811237 8.286439 73.272949 2.066926 -3.685421 6.510414 2.992389 -0.203515 -15.211363 -10.844824 3.853137 36.586216 48.698223 -53.907867 35.923630 21.204931 12.240370 
-0.844055 8.453834 1.220567 0.000000 -90.000000 0.000000 7.198446 -2.801649 -17.388300 17.720060 12.846484 -10.967052 -2.002382 23.423878 -0.002488 4.113199 8.081013 0.572319 23.524910 -5.607415 -18.710104 -81.931122 -42.833527 23.557709 26.157324 -18.940060 -0.869976 0.000000 0.000000 0.000000 -14.256507 57.332191 -101.513573 -10.400229 -15.050571 -12.542295 -46.915359 31.082327 24.059845 -18.271044 -25.324648 60.403461 9.261193 7.826645 8.278157 73.756165 2.121461 -3.669487 6.510414 2.992389 -0.203515 -15.405859 -10.882185 3.785490 36.586216 48.698223 -53.907867 36.032108 21.050179 12.120160 
